# xmcd
#
# Track frame offsets: 
#        150
#        19578
#        42579
#        63150
#        77524
#        98840
#        116678
#        131764
#        149121
#        167269
#        187904
#        209525
#        224220
#
# Disc length: 3130 seconds
#
# Revision: 10
# Processed by: cddbd v1.5.2PL0 Copyright (c) Steve Scherf et al.
# Submitted via: ExactAudioCopyFreeDBPlugin 1.0
#
DISCID=bf0c380d
DTITLE=Ryszard Rynkowski - Dary losu
DYEAR=2000
DGENRE=Blues
TTITLE0=Dary losu
TTITLE1=Jestem z kamienia
TTITLE2=Dziewczyny lubią brąz
TTITLE3=Czas
TTITLE4=Za młodzi za starzy
TTITLE5=Urodziny
TTITLE6=Blues dla tych, co nie tracą ducha
TTITLE7=Gdy mówią pieniądze
TTITLE8=Ten sam klucz
TTITLE9=Nazwij to snem
TTITLE10=Odbijany
TTITLE11=Widzisz Marto
TTITLE12=Święto
EXTD=
EXTT0=
EXTT1=
EXTT2=
EXTT3=
EXTT4=
EXTT5=
EXTT6=
EXTT7=
EXTT8=
EXTT9=
EXTT10=
EXTT11=
EXTT12=
PLAYORDER=
